<svg xmlns="http://www.w3.org/2000/svg" xmlns:xlink="http://www.w3.org/1999/xlink" viewBox="3418.19 50 344.698 264.776">
  <defs>
    <style>
      .cls-1 {
        fill: #cfd0d2;
      }

      .cls-2 {
        fill: #ffeda5;
      }

      .cls-3 {
        opacity: 0.17;
      }

      .cls-4, .cls-5 {
        opacity: 0.8;
      }

      .cls-5 {
        fill: #cabfd5;
      }

      .cls-6 {
        fill: #010101;
        opacity: 0.36;
      }

      .cls-7 {
        fill: #36758d;
      }

      .cls-8 {
        fill: #fff;
      }

      .cls-9 {
        filter: url(#Ellipse_3);
      }
    </style>
    <filter id="Ellipse_3" x="3418.19" y="137.19" width="117.62" height="117.62" filterUnits="userSpaceOnUse">
      <feOffset dy="3" input="SourceAlpha"/>
      <feGaussianBlur stdDeviation="3" result="blur"/>
      <feFlood flood-opacity="0.161"/>
      <feComposite operator="in" in2="blur"/>
      <feComposite in="SourceGraphic"/>
    </filter>
  </defs>
  <g id="Group_12" data-name="Group 12" transform="translate(2011)">
    <g id="_8277_Converted_" data-name="8277 [Converted]" transform="translate(1312.144 -160.6)">
      <g id="Objects" transform="translate(146.269 210.6)">
        <path id="Path_7" data-name="Path 7" class="cls-1" d="M483.734,441.472,456.571,219.22l-238.1,29.1L245.8,471.948l.882,7.22a5.677,5.677,0,0,1,2.66,1.52c.334-.935,1.626-1.847,1.93-2.6.475.38,6.335,3.017,6.274,2.584-.315-2.28,2.637-3.382,4.906-3.659q16.823-2.048,33.763-2.937l1.208-.711a49.7,49.7,0,0,0,25.821-7.273c1.1,1.843,3.393,2.592,5.529,2.82a18.366,18.366,0,0,0,12.734-3.481l6.639,2.386,2.892-4.94c1.334,1.341,3.462,1.357,5.35,1.284l5.92-.232c2.212-.087,4.754-.35,6-2.177.828,2.884,4.818,3.367,7.657,2.4s5.559-2.8,8.542-2.516c2.356.228,4.473,1.786,6.84,1.786,2.679,0,4.9-1.946,7.288-3.162s5.977-1.341,7.1,1.094l2.212-3.082a5.993,5.993,0,0,0,7.319-2.2,11.78,11.78,0,0,0,11.347-.84,8.547,8.547,0,0,1,2.823-1.573c2.493-.517,4.856,2.056,7.353,1.547a8.162,8.162,0,0,0,3.116-1.9,12.069,12.069,0,0,1,13.634-.228,11.658,11.658,0,0,1,4.366-6.1c.692,3.124,6.141,3.3,7.038.232l3.439,3.04c.623-1.592,2.7-1.9,4.4-1.984l11.723-.5Z" transform="translate(-191.033 -215.944)"/>
        <path id="Path_8" data-name="Path 8" class="cls-2" d="M247.814,459.805c2.022.232,3.7,1.972,5.738,1.949,1.729-.019,3.173-1.3,4.837-1.767a11.015,11.015,0,0,1,4.161-.046,83.893,83.893,0,0,0,27.36-1.619c2.208-.5,4.488-1.14,6.145-2.69,1.224-1.14,2.029-2.713,3.42-3.659,1.5-1.026,3.42-1.14,5.236-1.227l57.646-2.66c27.113-1.254,54.435-2.538,80.766-9.12,9.88-2.466,19.726-5.677,29.826-6.1L445.8,210.6,207.69,239.7l27.33,223.627c3.165-1,6.342-1.987,9.5-2.979A8.461,8.461,0,0,1,247.814,459.805Z" transform="translate(-184.35 -210.6)"/>
        <path id="Path_9" data-name="Path 9" class="cls-3" d="M283.2,834.669c.334-.935,1.626-1.847,1.93-2.6.475.38,6.335,3.017,6.274,2.584-.315-2.28,2.637-3.382,4.906-3.659q16.823-2.048,33.763-2.937l1.208-.711a49.7,49.7,0,0,0,25.821-7.273c1.1,1.843,3.393,2.592,5.529,2.82a18.365,18.365,0,0,0,12.734-3.481L382,821.8l2.892-4.94c1.334,1.341,3.462,1.357,5.35,1.284l5.92-.232c2.212-.087,4.754-.35,6-2.177.828,2.884,4.818,3.367,7.657,2.4s5.559-2.8,8.542-2.516c2.356.228,4.473,1.786,6.84,1.786,2.679,0,4.9-1.946,7.288-3.162s5.977-1.341,7.1,1.094l2.212-3.082a5.992,5.992,0,0,0,7.319-2.2,11.78,11.78,0,0,0,11.347-.84,8.546,8.546,0,0,1,2.823-1.573c2.493-.517,4.856,2.056,7.353,1.547a8.162,8.162,0,0,0,3.116-1.9,12.069,12.069,0,0,1,13.634-.228,11.655,11.655,0,0,1,4.37-6.1c.692,3.12,6.141,3.3,7.038.232l3.439,3.04c.623-1.592,2.7-1.9,4.4-1.984l11.723-.5-.76-6.327c-10.1.426-19.965,3.637-29.826,6.1-26.33,6.582-53.656,7.866-80.766,9.12l-57.646,2.66c-1.816.084-3.739.2-5.236,1.227-1.379.946-2.189,2.519-3.42,3.659-1.653,1.543-3.937,2.189-6.145,2.69a83.894,83.894,0,0,1-27.36,1.619,11.176,11.176,0,0,0-4.161.046c-1.668.464-3.108,1.748-4.837,1.767-2.037.023-3.716-1.714-5.738-1.949a8.04,8.04,0,0,0-3.283.543c-3.169,1-6.342,1.976-9.5,2.979l.882,7.22A5.678,5.678,0,0,1,283.2,834.669Z" transform="translate(-228.99 -573.194)"/>
        <g id="Group_11" data-name="Group 11" class="cls-4" transform="translate(0 14.972)">
          <path id="Path_10" data-name="Path 10" class="cls-5" d="M212.808,257.25c-.167-.422-.422-.8-.6-1.216a7.626,7.626,0,0,1-.464-1.759,17.876,17.876,0,0,1-.585-3.515,3.071,3.071,0,0,1,0-.76l-64.866,11.7a1.247,1.247,0,0,0-.019.251,12.355,12.355,0,0,0,.543,2.132,55.9,55.9,0,0,1,1.539,9.036,7.9,7.9,0,0,0,.414,2.28c.167.418.414.8.589,1.216a8.117,8.117,0,0,1,.464,1.9l1.167,7.4,64.859-11.7a113.086,113.086,0,0,1-2.694-15.056A6.6,6.6,0,0,0,212.808,257.25Z" transform="translate(-146.269 -250)"/>
        </g>
        <path id="Path_11" data-name="Path 11" class="cls-6" d="M517.6,438.554c-2.516-11.943-11.525-22.2-23.663-24.746-6.323-1.319-14.524-.813-19.927,3.074-.562-1.547-1.178-3.074-1.809-4.594a41.108,41.108,0,0,0-6.506-11.195c-2.915-3.42-6.7-5.67-10.716-7.57a44.333,44.333,0,0,0-14.364-4.3c-9.017-.935-18.042.813-25.24,6.513a55.015,55.015,0,0,0-10.005,10.119,50.347,50.347,0,0,0-6.217,11.78c-1.923,4.936-3.393,10.116-3.226,15.436a21.04,21.04,0,0,0,1.9,8.425l.072.144c-.5-.1-1.007-.2-1.52-.289a29.713,29.713,0,0,0-10.3-.129,23.705,23.705,0,0,0-15.139,9.2c-3.591,4.636-6.756,10.564-6.882,16.5v.19a20.968,20.968,0,0,0,.042,3.219,31.312,31.312,0,0,0,2.219,10.7,16.885,16.885,0,0,0,.908,2.01,78.122,78.122,0,0,0,4.492,7.06,26.61,26.61,0,0,0,13.095,10.431c2.565.939,5.377,1.007,8.075,1.22a72.939,72.939,0,0,0,8.74.243c2.922-.122,5.78-.665,8.683-.961,3.257-.334,6.494-.6,9.717-1.227,2.58-.5,5.179-.547,7.786-.821,3.211-.338,6.411-.8,9.606-1.243,6.107-.847,12.365-1.338,18.369-2.747,5.468-1.284,11.02-2.094,16.545-3.124,2.823-.524,5.613-1.212,8.436-1.737,1.326-.247,2.576-.669,3.872-1.034,1.547-.437,3.146-.57,4.682-1.041q3.937-1.208,7.775-2.7c2.766-1.068,5.7-1.7,8.307-3.188a21.333,21.333,0,0,0,5.863-4.587c1.775-2.124,3.865-3.9,5.366-6.262C522.931,461.5,519.812,449.083,517.6,438.554Zm-23.5-11.525c1.041-.935,2.128-1.562,3.348-2.7q.228-.213.437-.441.574.308,1.14.65a3.143,3.143,0,0,0-1.094.418,27.162,27.162,0,0,0-3.876,2.614,42.349,42.349,0,0,1-3.618,3.089l-.612.433C491.224,429.715,492.641,428.347,494.108,427.028Zm-7.98-5.8c.54-.023,1.075-.027,1.607,0a59.126,59.126,0,0,0-8.014,5.8l-.483.38a13.406,13.406,0,0,0,.8-1.14,3.078,3.078,0,0,0-.182-3.477,12.226,12.226,0,0,1,2.12-.847,13.773,13.773,0,0,1,4.15-.711ZM423.6,485.852c-.049.1-.1.186-.152.281-1.3,1.25-2.877,2.618-3.595,4.256-2.607.236-5.21.479-7.817.688q3.682-3.644,7.4-7.22c8.007-7.437,16.56-14.322,25.107-21.075q9.808-7.744,19.578-15.534c-4.773,4.765-9.409,9.663-14.22,14.387-5.069,4.978-10.42,9.633-15.823,14.235-1.425,1.212-2.861,2.413-4.275,3.644-1.311,1.14-2.77,2.067-4.081,3.184A9.05,9.05,0,0,0,423.6,485.852Zm36.963-52.569c-6.08,4.56-12.456,8.778-18.666,13.186q5.457-4.712,10.978-9.363c3.181-2.683,6.35-5.388,9.477-8.136,1.7-1.493,3.671-3.04,5.407-4.708a16.5,16.5,0,0,0,.866,2.66c-2.713,2.094-5.328,4.305-8.06,6.361Zm-18.681-35.834a41.694,41.694,0,0,1,10.26,3.534c-.916.7-1.8,1.44-2.721,2.139l-.255.186a2.759,2.759,0,0,0-1.93-2.158,6.892,6.892,0,0,0-4.868.642,3.147,3.147,0,0,0-.76-1.645,4.392,4.392,0,0,0,.445-1.182,2.42,2.42,0,0,0-.171-1.516Zm18.384,9.614c-.3.331-.589.673-.847.973a4.034,4.034,0,0,0-.509-.243c-2.079-.8-4.309.551-6.11,1.847a37.129,37.129,0,0,0,4.94-5.233,18.62,18.62,0,0,1,2.527,2.656Zm5.1,9.667c-.68.509-1.288,1.11-2,1.676-1.383,1.094-2.7,2.28-4.146,3.287l-.661.467.46-.49c1.9-2.124,3.929-4.207,5.772-6.407C464.974,415.746,465.167,416.236,465.361,416.73Zm-2.436-5.495c-1.471,1.733-3.1,3.348-4.72,4.94a26.285,26.285,0,0,0,2.413-4.18,3.508,3.508,0,0,0,.338-1.569c.179-.209.353-.422.536-.627l.38-.422q.559.916,1.053,1.854ZM437.7,396.886a30.164,30.164,0,0,0-5.613,3.249c-1.642,1.334-3.04,2.918-4.628,4.328l-.251.1v-.8a3.925,3.925,0,0,0-.593-2.079c.232-.22.467-.437.711-.65,1.235-1.091,2.683-1.828,3.937-2.88a2.28,2.28,0,0,0,.76-1.14,29.358,29.358,0,0,1,5.677-.133Zm2.561,12.342-.247.319q-2.3,1.569-4.56,3.181c.559-.46,1.083-.92,1.577-1.284,1.041-.794,2.124-1.516,3.23-2.219ZM384.3,490.34a17.1,17.1,0,0,1-1.6-.76,18.785,18.785,0,0,1-2.132-2.132c2.075-1.14,3.8-2.994,5.609-4.59a95.374,95.374,0,0,1,8.561-6.734c5.947-4.18,12.1-8.045,17.959-12.358q2.7-1.987,5.366-4.017c-5.772,5.381-11.5,10.8-17.336,16.123l-9.086,8.288C389.273,486.3,386.7,488.216,384.3,490.34Zm28.553-40.9c-6.24,6.08-12.741,11.78-19.357,17.457-3.7,3.173-7.22,6.54-11.02,9.614-1.7,1.383-3.42,2.782-5.229,4.009a10.569,10.569,0,0,0-1.026.76c-.353-.54-.7-1.087-1.018-1.645,2.071-1.193,3.705-3.42,5.32-5.027,2.763-2.755,5.472-5.582,8.33-8.238,5.7-5.32,11.924-10.059,17.742-15.249l.061-.057a4.56,4.56,0,0,0,2.58-2.314q7.152-6.43,14.22-12.962a2.584,2.584,0,0,0,2.193,1.832c-4.343,3.842-8.637,7.76-12.795,11.822Zm13.855-44.76c-.213.027-.471.049-.471.046C426.331,404.19,426.54,404.361,426.711,404.684Zm-19.19,37.848c-.38-.654-.809-1.292-1.231-1.927a14.629,14.629,0,0,0,1.49-1.813,98.7,98.7,0,0,1,9.249-6.912q5.6-3.975,11.191-7.961l-6.209,5.628C417.211,433.9,412.271,438.139,407.521,442.532Zm3.545-15.2c-1.448,1.82-2.854,3.667-4.29,5.495-.79,1.007-1.588,2.01-2.405,2.994-.091.087-.182.179-.274.27a16.282,16.282,0,0,1-.4-3.773c1.649-1.74,3.295-3.462,5.05-5.1,3.568-3.325,7.152-6.62,10.689-9.979q3.015-2.85,6.167-5.54c-1.626,1.642-3.268,3.268-4.879,4.913a139.229,139.229,0,0,0-9.66,10.72Zm10.613-20.3a4.438,4.438,0,0,0,.585,1.341,4.247,4.247,0,0,0,.277.38c-2.694,2.466-5.286,5.043-7.858,7.657-3.4,3.454-7,6.73-10.328,10.26a42.24,42.24,0,0,1,1.9-5.947c3.941-3.45,8.162-6.57,12-10.138,1.231-1.132,2.329-2.329,3.42-3.549Zm8.36,33.33c-.068.3-.125.6-.167.908a2.208,2.208,0,0,0,.266,1.391c-2.937,2.079-5.825,4.222-8.7,6.388q4.275-4.351,8.58-8.683Zm-1.615-22.534q-4.758,3.481-9.5,6.973c1.729-1.93,3.511-3.8,5.32-5.7l4.978-5.145a2.39,2.39,0,0,0,1.11.635,4.431,4.431,0,0,0,3.378-.616q-2.671,1.927-5.3,3.857Zm-10.484-14.037c-.809,1.022-1.642,2.033-2.546,2.991-1.1,1.167-2.238,2.28-3.4,3.4a37.171,37.171,0,0,1,2.66-3.131c1.034-1.094,2.117-2.2,3.264-3.253Zm-19.35,46.451.342-.023c-3.466,2.934-7,5.791-10.427,8.74-1,.866-1.98,1.756-2.941,2.66.847-1.14,1.695-2.28,2.516-3.42s1.55-2.2,2.318-3.314c.722-1.041,1.216-2.333,2.006-3.314a3.146,3.146,0,0,0,.612-1.189C394.875,450.356,396.737,450.372,398.591,450.239Zm-15.063,1.452a26.434,26.434,0,0,0-2.082,1.782c-1.14,1.087-2.352,2.155-3.534,3.241.224-.3.456-.585.7-.863A17.846,17.846,0,0,1,383.528,451.69Zm-9.033,10.7a2.588,2.588,0,0,0,2.611,1.52c-1.486,2.094-2.888,4.241-4.313,6.38-.053-.551-.1-1.1-.114-1.649a12.342,12.342,0,0,1,1.813-6.262ZM393,491.913l2.28-1.729c3.169-2.4,6.278-4.887,9.4-7.349q9.223-7.266,18.525-14.44c6.585-5.092,13.3-10.005,20.034-14.85l-1.634,1.52c-11.476,10.568-23.336,20.721-34.276,31.856a2.987,2.987,0,0,0,.2,4.473c-.927.053-1.854.1-2.785.141-3.815.152-7.836.49-11.75.369Zm35.842-2.314c.258-.243.5-.467.7-.665,2.314-2.333,4.723-4.56,7.167-6.768,4.955-4.469,10.005-8.816,15.086-13.144,9.462-8.022,19.16-15.736,29.036-23.237-3.941,4.29-7.957,8.508-12,12.711q-5.844,6.08-11.894,11.951-2.36,1.9-4.678,3.88c-2.694,2.28-5.366,4.617-7.98,7.019-2.223,2.056-4.94,4.3-6.183,7.117-3.07.494-6.16.847-9.257,1.129Zm25.4-3.583c-2.174.456-4.37.8-6.57,1.113,1.022-.9,2.056-1.794,3.07-2.709,2.717-2.451,5.388-4.959,8.048-7.475l.38-.357c4.822-3.963,9.77-7.763,14.774-11.491q2.911-2.166,5.844-4.3-2.926,3.192-5.856,6.384c-3.078,3.344-6.376,6.528-9.215,10.081a3.227,3.227,0,0,0,4.56,4.56q2.037-1.71,4.074-3.4-.851.859-1.695,1.729a2.979,2.979,0,0,0-.84,2.386l-.293.072c-5.4,1.277-10.872,2.253-16.287,3.393Zm29.093-6.293q1.773-1.237,3.542-2.481a3.876,3.876,0,0,0-.718,2.189h-.068C485.159,479.491,484.243,479.594,483.331,479.723Zm27.163-14.881c-.027.068-.057.129-.084.2-.095-.084-.194-.167-.3-.243a3.561,3.561,0,0,0-2.842-.654c.38-.559.741-1.14,1.079-1.718a3.276,3.276,0,0,0-3.656-4.758,10.491,10.491,0,0,0-2.094.76,47.6,47.6,0,0,0,4.632-4.94,3.3,3.3,0,0,0,.255-4.256,3.249,3.249,0,0,0-4.18-.836c-3.241,1.9-6.209,4.343-9.268,6.532q2.006-2.079,4.024-4.142c3.325-3.393,6.84-6.654,9.686-10.458a3.209,3.209,0,0,0-.5-3.876,3.368,3.368,0,0,0-3.876-.5c-2.926,1.239-5.563,3.69-8.029,5.658s-4.97,3.827-7.524,5.651q1.163-1.246,2.322-2.5c2.47-2.66,4.875-5.4,7.323-8.1,2.113-2.329,5.613-5.464,5.369-8.911a.489.489,0,0,0-.027-.194,26.219,26.219,0,0,1,6.019,10.26c.669,2.257,1.011,4.59,1.52,6.886.467,2.162.969,4.313,1.246,6.509.562,4.6.562,9.242-1.1,13.631Z" transform="translate(-281.273 -321.198)"/>
      </g>
    </g>
    <g class="cls-9" transform="matrix(1, 0, 0, 1, -2011, 0)">
      <circle id="Ellipse_3-2" data-name="Ellipse 3" class="cls-7" cx="49.81" cy="49.81" r="49.81" transform="translate(3427.19 143.19)"/>
    </g>
    <path id="network" class="cls-8" d="M65.2,5.258a5.257,5.257,0,0,0-10.4-1.08L20.6,3.172a5.251,5.251,0,1,0-8.672,5.641L5.785,15.828a5.28,5.28,0,0,0-.528-.053,5.258,5.258,0,0,0,0,10.516,5.193,5.193,0,0,0,2.239-.52L19.784,37.5a16.824,16.824,0,1,0,27.508,2.7l7-4.051a5.189,5.189,0,0,0,2.5.66,5.25,5.25,0,0,0,1.225-10.357l2.828-16.023A5.258,5.258,0,0,0,65.2,5.258ZM52.093,29.226,37.829,24.472c.005-.1.028-.187.028-.285a5.231,5.231,0,0,0-.4-2.01L56.267,9.009a5.246,5.246,0,0,0,2.449,1.348L55.888,26.381a5.25,5.25,0,0,0-3.8,2.846ZM10.36,22.248l17.073,2.846a5.261,5.261,0,0,0,4.115,4.245V31.6a16.741,16.741,0,0,0-10.3,4.389L9.194,24.482a5.226,5.226,0,0,0,1.166-2.235ZM55.086,7.268,36.274,20.436a5.2,5.2,0,0,0-5.84-1.027L20.141,8.179a5.23,5.23,0,0,0,.888-2.89l33.759.993a5.2,5.2,0,0,0,.3.985ZM34.7,48.374a2.1,2.1,0,1,1-2.1-2.1A2.105,2.105,0,0,1,34.7,48.374ZM27.808,34.467a17.327,17.327,0,0,0-2.494,5.4l-2.543-2.427a14.753,14.753,0,0,1,5.037-2.975Zm3.74-.567V44.317a4.164,4.164,0,0,0-1.095.459l-3.4-3.242c.964-4.047,2.71-6.827,4.491-7.633ZM28.977,46.274a4.188,4.188,0,0,0-.434,1.049H26.315A31.08,31.08,0,0,1,26.592,44Zm-.434,3.152a4.2,4.2,0,0,0,3.005,3.005V62.848c-2.539-1.148-5.008-6.3-5.233-13.422Zm5.109,13.422V52.431a4.2,4.2,0,0,0,3.005-3.005h2.227c-.225,7.119-2.694,12.274-5.233,13.422Zm3.005-15.525a4.2,4.2,0,0,0-.3-.8l2.387-1.382c.07.7.112,1.431.137,2.178ZM34.969,44.9a4.153,4.153,0,0,0-1.318-.585V33.9c1.976.894,3.908,4.215,4.776,9Zm2.422-10.434a14.769,14.769,0,0,1,6.923,5.025l-3.95,2.286a19.048,19.048,0,0,0-2.973-7.311ZM32.6,27.342a3.155,3.155,0,1,1,3.155-3.155A3.159,3.159,0,0,1,32.6,27.342ZM59.941,2.1a3.155,3.155,0,1,1-3.155,3.155A3.159,3.159,0,0,1,59.941,2.1Zm-44.168,0a3.155,3.155,0,1,1-3.155,3.155A3.159,3.159,0,0,1,15.774,2.1Zm-2.139,7.948a5.183,5.183,0,0,0,5.006-.4l10.087,11a5.224,5.224,0,0,0-1.23,2.313L10.424,20.126a5.248,5.248,0,0,0-2.469-3.584ZM2.1,21.032a3.155,3.155,0,1,1,3.155,3.155A3.159,3.159,0,0,1,2.1,21.032Zm22.65,21.21a32.318,32.318,0,0,0-.54,5.08H17.93A14.651,14.651,0,0,1,21.3,38.95ZM17.93,49.426h6.282c.16,5.4,1.528,10.032,3.6,12.855A14.735,14.735,0,0,1,17.93,49.426Zm19.46,12.855c2.067-2.822,3.436-7.459,3.6-12.855h6.282a14.735,14.735,0,0,1-9.878,12.855Zm9.878-14.958H40.986Q40.935,45.6,40.725,44l4.748-2.749a14.605,14.605,0,0,1,1.8,6.073ZM33.651,31.6V29.339a5.259,5.259,0,0,0,3.642-2.83l14.264,4.754c-.005.1-.028.187-.028.285A5.209,5.209,0,0,0,52.6,34.695l-6.457,3.738A16.793,16.793,0,0,0,33.651,31.6Zm26.29-.053a3.155,3.155,0,1,1-3.155-3.155A3.159,3.159,0,0,1,59.941,31.548Zm0,0" transform="translate(1433.729 160.027)"/>
  </g>
</svg>
